PathFileType	4	(X/Y/Z)	C:\Users\WrightLab\Desktop\Jo\P5V19.trc
DataRate	CameraRate	NumFrames	NumMarkers	Units	OrigDataRate	OrigDataStartFrame	OrigNumFrames
100.00	100.00	       12	19	mm	100.00	89	       705
Frame#	Time	Headset_Front			Headset_Back			Headset_Left			Headset_Right			Left_Shoulder			Right_Shoulder			Sternum			C7			Left Elbow			Right Elbow			Left Wrist			Right Wrist			Left ASIS			Right ASIS			S2			Left Knee			Right Knee			Left Ankle			Right Ankle			
		X1	Y1	Z1	X2	Y2	Z2	X3	Y3	Z3	X4	Y4	Z4	X5	Y5	Z5	X6	Y6	Z6	X7	Y7	Z7	X8	Y8	Z8	X9	Y9	Z9	X10	Y10	Z10	X11	Y11	Z11	X12	Y12	Z12	X13	Y13	Z13	X14	Y14	Z14	X15	Y15	Z15	X16	Y16	Z16	X17	Y17	Z17	X18	Y18	Z18	X19	Y19	Z19	

89	0.880				-215.12108	1511.75195	-1041.92090										-327.08490	1436.16736	-846.23236	-110.86340	1305.98743	-864.50696				94.06330	1208.72400	-1133.17773	-461.40259	1180.67554	-903.23230	185.03978	1054.80505	-980.06067	-370.28653	981.81598	-787.51434	3.82564	914.09296	-942.33362	-240.67683	929.64771	-820.93591	-212.15175	967.35168	-1146.80994	61.88431	498.81744	-934.52264	-305.32770	473.77560	-844.55182	-3.96301	120.51862	-1075.72632	-353.04953	80.83723	-977.99097	
90	0.890				-213.86887	1511.69031	-1038.37231										-321.65292	1435.55334	-840.98553	-107.70838	1305.81177	-863.30475				94.93716	1207.95776	-1131.73535	-458.71588	1180.36487	-897.45172	186.32312	1054.35327	-981.15295	-366.14175	981.31396	-782.36292	4.51684	912.67731	-944.39136	-236.35583	928.94263	-818.32861	-211.82613	966.96069	-1143.94458	66.70410	499.29443	-934.41388	-302.22351	473.42773	-841.17133	-0.54346	117.11273	-1068.95032	-352.57968	80.38229	-977.91815	
91	0.900				-212.67152	1511.54199	-1035.70691										-319.11496	1434.12000	-836.34729	-104.45666	1305.93372	-861.30902				96.11217	1207.34924	-1130.47449	-455.32169	1179.63733	-891.39960	188.55325	1053.59351	-983.04297	-361.56348	980.32434	-778.54089	6.48874	912.39838	-943.59503	-233.68578	927.59711	-815.94452	-211.50671	966.64514	-1141.02954	71.77763	499.52106	-934.12946	-298.89771	472.53244	-836.41785	4.75002	115.66059	-1062.12439	-352.32230	80.36585	-978.24915	
92	0.910				-211.12369	1511.11670	-1032.14539										-316.56451	1434.83118	-832.98950	-101.15324	1305.69470	-859.70917				96.45689	1207.30505	-1130.87927	-451.86218	1178.78821	-886.15302	190.10425	1052.70850	-984.26251	-357.42633	979.40259	-773.96338	10.04664	912.96289	-942.05432	-229.28450	928.39465	-811.82190	-211.42604	966.66968	-1139.35718	77.02029	499.73297	-933.22754	-295.41406	472.43503	-833.34650	10.92145	113.30164	-1055.61450	-351.18695	79.93784	-977.89539	
93	0.920				-209.46994	1511.06079	-1029.16260										-312.97168	1434.87634	-829.43463	-97.93475	1305.83569	-857.78021				96.82506	1207.29456	-1131.14587	-448.48541	1178.86450	-880.20721	192.32301	1052.52771	-986.37457	-352.37665	978.06964	-769.56580	12.24518	912.59521	-941.44873	-225.51193	927.56982	-809.55157	-210.79898	966.51593	-1136.29517	82.42413	500.23654	-934.41876	-292.70651	472.10193	-830.57281	18.25739	111.70551	-1048.36719	-351.14655	79.95359	-977.89142	
94	0.930				-207.63837	1510.56384	-1026.09033										-308.35782	1433.42822	-824.68060	-94.28501	1305.24622	-856.21320				97.37566	1207.32263	-1131.34619	-444.50803	1178.08044	-875.14917	194.37883	1051.45215	-987.24396	-348.43988	978.24963	-765.03674	14.82732	912.64539	-940.39948	-221.71947	927.82898	-807.53516	-209.97789	966.84222	-1133.71960	86.88789	500.29468	-934.73981	-288.79773	471.57111	-825.58667	25.38560	109.68217	-1042.64392	-351.08917	79.94056	-977.87909	
95	0.940				-205.68459	1510.40393	-1022.90375										-305.92123	1433.51013	-820.51184	-90.93884	1304.66650	-853.66772	18.36130	1637.91821	-862.48718	98.61674	1207.49927	-1132.05444	-441.43884	1177.60693	-869.97510	197.04068	1051.37988	-989.44714	-342.77188	977.67682	-761.12085	18.45702	913.06677	-938.67480	-217.47456	927.54315	-804.87073	-209.26332	966.45770	-1130.73145	92.00427	500.76611	-935.51733	-287.14700	471.32941	-822.06036	32.58680	107.72548	-1035.86108	-350.40622	80.72906	-977.46820	
96	0.950				-203.46471	1509.99097	-1019.74036										-300.69870	1433.28442	-816.70477	-87.35432	1305.24402	-851.14532	21.55511	1638.16589	-861.02222	99.27532	1207.54822	-1132.22839	-437.26260	1176.69299	-864.65186	199.30067	1050.65125	-990.41681	-337.64014	976.35278	-756.89166	21.34400	912.84515	-938.10425	-212.94704	927.87323	-800.90918	-208.40271	966.07440	-1128.07227	96.64305	500.54678	-935.76862	-283.70685	470.83478	-818.33325	40.51527	105.38042	-1030.28186	-350.17108	80.98155	-977.46802	
97	0.960				-201.05983	1509.77039	-1016.67859										-296.83914	1432.62732	-812.67010	-83.74803	1304.49329	-847.99921	25.03620	1637.75745	-859.76154	101.09004	1207.28210	-1131.87939	-433.23499	1176.26221	-859.77423	201.64998	1049.97949	-991.66400	-332.93594	975.89740	-752.79211	24.88684	912.67285	-939.05249	-209.65607	926.95227	-798.92865	-207.47571	965.96503	-1126.14880	100.43253	500.87326	-936.39032	-281.33322	469.95041	-815.60077	49.45800	103.21822	-1023.07416	-350.17108	80.98155	-977.46802	
98	0.970				-198.62845	1509.10461	-1013.65979										-291.99915	1431.77136	-807.95605	-80.24168	1303.97168	-845.98987	28.56402	1637.76147	-858.37012	102.86872	1206.75269	-1130.61548	-429.49600	1175.94397	-854.70062	204.46526	1048.99780	-991.42450	-327.57327	975.83075	-748.26495	28.60625	911.40881	-937.75543	-204.81631	926.14551	-796.88416	-206.05675	965.61420	-1122.88489	105.32879	500.95740	-937.60107	-278.80499	469.77417	-813.34766	57.77734	100.54710	-1017.38574	-349.99921	81.28885	-977.12885	
99	0.980				-195.91762	1509.00659	-1010.71216										-287.41760	1431.28821	-804.44769	-75.63971	1303.45056	-844.07306	32.25839	1637.64465	-857.16193	103.95154	1206.79199	-1131.10486	-424.59036	1175.12671	-849.55334	207.50290	1048.56470	-992.84680	-321.78867	975.74127	-744.83081	31.79058	910.54913	-936.72729	-200.73364	925.97632	-794.75684	-204.50519	965.55536	-1120.08704	109.22488	501.08475	-937.83228	-276.17572	468.97473	-810.77136	64.19308	99.14436	-1011.24738	-349.76151	81.60044	-976.99103	
100	0.990				-192.99792	1508.63342	-1007.57684										-284.55295	1431.80103	-801.68378	-71.30086	1302.87012	-842.36450	36.18884	1637.38379	-855.92035	106.62022	1206.72485	-1131.10388	-420.72339	1173.91785	-844.07245	210.13246	1048.00476	-993.49701	-316.61484	975.01740	-740.51270	36.57310	911.19830	-935.26849	-196.73456	925.25171	-791.70905	-202.83075	965.04907	-1117.00842	113.43358	500.43384	-938.59338	-273.46204	468.36652	-806.16119	74.15344	97.83110	-1005.04352	-349.33936	81.96410	-976.69287	
